# xmcd
#
# Track frame offsets:
#	150
#	30255
#	68437
#	97247
#	120362
#	142864
#	168174
#
# Disc length: 2481 seconds
#
# Revision: 1
# Processed by: cddbd v1.5.1PL2 Copyright (c) Steve Scherf et al.
# Submitted via: EasyCDDAExtractor 8.0.2.1
#
DISCID=4a09af07
DTITLE=Saxon  - The Tivoli Helsingborg 16-12-97 Disc 2
DYEAR=1997
DGENRE=Hard Rock
TTITLE0=Power and Glory
TTITLE1=Broken Heroes
TTITLE2=Circle Of Lights
TTITLE3=Heavy Metal Thunder
TTITLE4=Strong Arm Of The Law
TTITLE5=Denim and Leathe
TTITLE6=Motorcycle Man
EXTD=
EXTT0=
EXTT1=
EXTT2=
EXTT3=
EXTT4=
EXTT5=
EXTT6=
PLAYORDER=
